<svg id="Current_location" xmlns="http://www.w3.org/2000/svg" width="100" height="100" viewBox="0 0 100 100">
  <g id="bg" fill="#fff" stroke="#1a1818" stroke-width="4" opacity="0.5">
    <rect width="100" height="100" rx="20" stroke="none"/>
    <rect x="2" y="2" width="96" height="96" rx="18" fill="none"/>
  </g>
  <path id="Path_22854" data-name="Path 22854" d="M-758.793-119.808a18.119,18.119,0,0,0-3.08-8.071,18.8,18.8,0,0,0-12.813-8.181c-.557-.092-1.115-.18-1.672-.271h-2.732a4.059,4.059,0,0,1-.42.087,18.981,18.981,0,0,0-5.734,1.463,18.916,18.916,0,0,0-9,7.98,18.685,18.685,0,0,0-2.353,12.625,19.723,19.723,0,0,0,3.858,8.837q6.771,9.031,13.5,18.094a1.768,1.768,0,0,0,1.784.9,1.137,1.137,0,0,0,.915-.474c4.656-6.259,9.34-12.5,13.989-18.763A18.946,18.946,0,0,0-758.793-119.808Zm-18.936,9.88a7.765,7.765,0,0,1-7.765-7.765,7.765,7.765,0,0,1,7.765-7.765,7.765,7.765,0,0,1,7.765,7.765A7.765,7.765,0,0,1-777.729-109.928Z" transform="translate(826.845 161.33)" fill="#1a1818"/>
</svg>
