<svg xmlns="http://www.w3.org/2000/svg" width="70" height="70" viewBox="0 0 70 70">
  <g id="HomeMenu" transform="translate(-149 -608)">
    <rect id="Rectangle_6431" data-name="Rectangle 6431" width="70" height="70" transform="translate(149 608)" fill="none"/>
    <path id="Path_38254" data-name="Path 38254" d="M23.4,70.688a8.939,8.939,0,0,1-8.929-8.929v-22.3l-4.419,3.985A2.831,2.831,0,0,1,6.294,39.2l31.25-27.8a2.825,2.825,0,0,1,3.755,0L72.589,39.188a2.831,2.831,0,1,1-3.756,4.236L64.377,39.46v22.3a8.939,8.939,0,0,1-8.929,8.929Zm-3.281-8.929A3.285,3.285,0,0,0,23.4,65.04H55.448a3.285,3.285,0,0,0,3.281-3.281V34.442L39.422,17.3,20.115,34.442Z" transform="translate(144.658 602.312)" fill="#030000"/>
  </g>
</svg>
