<svg xmlns="http://www.w3.org/2000/svg" width="90" height="90" viewBox="0 0 90 90">
  <g id="ic_current_location" transform="translate(-30 -27)">
    <g id="Group_20217" data-name="Group 20217" opacity="0.15">
      <g id="Group_20216" data-name="Group 20216" opacity="0.15">
        <g id="Group_20215" data-name="Group 20215" opacity="0.15">
          <g id="Group_20214" data-name="Group 20214" opacity="0.15">
            <path id="Path_52147" data-name="Path 52147" d="M75,27A45,45,0,1,1,43.18,40.18,45,45,0,0,1,75,27Z" fill="#1a5a3f"/>
          </g>
        </g>
      </g>
    </g>
    <g id="Path_52148" data-name="Path 52148" transform="translate(52 49)" fill="#4285f4">
      <path d="M 23 50 C 19.35677909851074 50 15.82042980194092 49.28556823730469 12.48915004730225 47.87656021118164 C 9.273539543151855 46.51647186279297 6.386459827423096 44.57022094726563 3.908119916915894 42.09188079833984 C 1.429780006408691 39.61354064941406 -0.5164700150489807 36.72645950317383 -1.876559972763062 33.51084899902344 C -3.285569906234741 30.17956924438477 -4 26.64322090148926 -4 23 C -4 19.35677909851074 -3.285569906234741 15.82042980194092 -1.876559972763062 12.48915004730225 C -0.5164700150489807 9.273539543151855 1.429780006408691 6.386459827423096 3.908119916915894 3.908119916915894 C 6.386459827423096 1.429780006408691 9.273539543151855 -0.5164700150489807 12.48915004730225 -1.876559972763062 C 15.82042980194092 -3.285569906234741 19.35677909851074 -4 23 -4 C 26.64322090148926 -4 30.17956924438477 -3.285569906234741 33.51084899902344 -1.876559972763062 C 36.72645950317383 -0.5164700150489807 39.61354064941406 1.429780006408691 42.09188079833984 3.908119916915894 C 44.57022094726563 6.386459827423096 46.51647186279297 9.273539543151855 47.87656021118164 12.48915004730225 C 49.28556823730469 15.82042980194092 50 19.35677909851074 50 23 C 50 26.64322090148926 49.28556823730469 30.17956924438477 47.87656021118164 33.51084899902344 C 46.51647186279297 36.72645950317383 44.57022094726563 39.61354064941406 42.09188079833984 42.09188079833984 C 39.61354064941406 44.57022094726563 36.72645950317383 46.51647186279297 33.51084899902344 47.87656021118164 C 30.17956924438477 49.28556823730469 26.64322090148926 50 23 50 Z" stroke="none"/>
      <path d="M 23 0 C 10.29745864868164 0 0 10.29745864868164 0 23 C 0 35.70254516601563 10.29745864868164 46 23 46 C 35.70254516601563 46 46 35.70254516601563 46 23 C 46 10.29745864868164 35.70254516601563 0 23 0 M 23 -8 C 40.09345626831055 -8 54 5.906543731689453 54 23 C 54 40.09345626831055 40.09345626831055 54 23 54 C 5.906543731689453 54 -8 40.09345626831055 -8 23 C -8 5.906543731689453 5.906543731689453 -8 23 -8 Z" stroke="none" fill="#fff"/>
    </g>
  </g>
</svg>
