<svg xmlns="http://www.w3.org/2000/svg" width="100" height="100" viewBox="0 0 100 100">
  <g id="Map_location" transform="translate(-70 -2259)">
    <g id="Current_location" transform="translate(70 2259)">
      <g id="bg" fill="#fff" stroke="#1a1818" stroke-width="4" opacity="0.5">
        <rect width="100" height="100" rx="20" stroke="none"/>
        <rect x="2" y="2" width="96" height="96" rx="18" fill="none"/>
      </g>
    </g>
    <g id="Map_location-2" data-name="Map_location" transform="translate(70 2259)">
      <g id="Group_9707" data-name="Group 9707" transform="translate(103.261 23.033)">
        <path id="Path_2576" data-name="Path 2576" d="M0,0V25.411" transform="translate(-52.761 26.556)" fill="#1a1818" stroke="#1a1818" stroke-linecap="round" stroke-width="4"/>
        <g id="Group_9706" data-name="Group 9706" transform="translate(-70.261 1.967)">
          <path id="Path_2573" data-name="Path 2573" d="M-41.328,2.61A16.731,16.731,0,0,0-58.059,19.341,16.731,16.731,0,0,0-41.328,36.073,16.731,16.731,0,0,0-24.6,19.341,16.731,16.731,0,0,0-41.328,2.61Zm0,25.979a9.248,9.248,0,0,1-9.248-9.248,9.248,9.248,0,0,1,9.248-9.248,9.248,9.248,0,0,1,9.248,9.248A9.247,9.247,0,0,1-41.328,28.589Z" transform="translate(58.3 -1.842)" fill="#1a1818"/>
          <circle id="Ellipse_52" data-name="Ellipse 52" cx="12.374" cy="12.374" r="12.374" transform="translate(0 17.5) rotate(-45)" fill="#1a1818"/>
        </g>
      </g>
    </g>
  </g>
</svg>
